<svg id="Layer_1" data-name="Layer 1" xmlns="http://www.w3.org/2000/svg" width="406" height="152.7" viewBox="0 0 406 152.7">
  <defs>
    <style>
      .cls-1 {
        fill: #03f;
      }

      .cls-2 {
        fill: #03031e;
      }
    </style>
  </defs>
  <g>
    <g>
      <path class="cls-1" d="M156,250.07a10.64,10.64,0,0,1-4.63,6.22,17.14,17.14,0,0,1-6.57,2.26,15.42,15.42,0,0,1-2.43.2c-3.69,0-7.27-1.36-11-4.14-13.06-9.86-26.37-19.83-39.25-29.47L81.18,217V317.39c0,8.67-5.81,15-13.79,15a16.92,16.92,0,0,1-7.5-1.84,12.67,12.67,0,0,1-5-4.23A11.57,11.57,0,0,1,53,319.74c0-16.44,0-33.15,0-49.31,0-25.57,0-52,0-78a12.15,12.15,0,0,1,4.29-9.35,14.59,14.59,0,0,1,9.56-3.41,16.79,16.79,0,0,1,8.64,2.44A72.71,72.71,0,0,1,82.43,187l2.17,1.67,24,18c13.61,10.22,27.68,20.78,41.53,31.16C153,240,157.82,243.57,156,250.07Z" transform="translate(-53 -179.65)"/>
      <path class="cls-2" d="M191.7,330.26a18,18,0,0,1-7.86,1.93,15.64,15.64,0,0,1-9.26-3.1c-4.86-3.49-9.7-7.15-14.39-10.7-1.91-1.45-3.89-2.94-5.85-4.41l-14.08-10.57c-13-9.75-26.44-19.84-39.68-29.72-2.18-1.63-6.72-5-5.54-11,1.26-6.51,7.23-8.26,9.19-8.84a16.11,16.11,0,0,1,4.61-.69,17.64,17.64,0,0,1,10.77,4c13.84,10.4,27.94,20.94,41.57,31.14l8.83,6.6v-.05q0-13.59,0-27.18c0-24,0-48.84,0-73.26,0-4.66,1.19-8.27,3.53-10.74s5.86-3.79,10.35-3.79c.53,0,1.08,0,1.64.06,3.94.24,7,1.53,9.24,3.83s3.33,5.49,3.33,9.41v36.9c0,28.53,0,58,.05,87.06C198.16,320.86,198.17,327.12,191.7,330.26Z" transform="translate(-53 -179.65)"/>
    </g>
    <g>
      <path class="cls-1" d="M260.14,216.71a4.16,4.16,0,0,1,3.35,1.54,4,4,0,0,1,.85,1.77,4.33,4.33,0,0,1,.1,1.08v6.47h-40v6.35h28v9.53H224.49l0,0v6.72h40a0,0,0,0,1,0,0v6.35a4.11,4.11,0,0,1-1.08,2.72,4.41,4.41,0,0,1-.94.79,4.31,4.31,0,0,1-2.34.6H217a4,4,0,0,1-1.2-.26,4.21,4.21,0,0,1-2.4-2.14,4.64,4.64,0,0,1-.38-1.9V234.2c0-1.07,0-4.57,0-10.48v-2.91a4.19,4.19,0,0,1,2.3-3.66,3.65,3.65,0,0,1,1-.35,2.83,2.83,0,0,1,.57-.09Z" transform="translate(-53 -179.65)"/>
      <path class="cls-1" d="M287.59,260.7c-1.63-.07-2.82-.13-3.57-.19a20.88,20.88,0,0,1-3.57-.6,18.76,18.76,0,0,1-3.1-1,11.14,11.14,0,0,1-3-2q-3.88-3.48-3.89-12.23l.25-22.29a5.48,5.48,0,0,1,1.24-3.7,5.28,5.28,0,0,1,4.13-1.95h6.29v29.43a2.8,2.8,0,0,0,.25,1.1,2.75,2.75,0,0,0,2.59,1.74h29.24a2.77,2.77,0,0,0,2.18-1.1,2.93,2.93,0,0,0,.66-2.12v-29h6.32a4.78,4.78,0,0,1,2.08.47,5.25,5.25,0,0,1,2.85,2.84,7,7,0,0,1,.38,1.55q.27,20.72.28,23.34a22.75,22.75,0,0,1-1.36,8.27,11.48,11.48,0,0,1-1,2,11,11,0,0,1-2.59,2.65,15.11,15.11,0,0,1-2.65,1.36,20.52,20.52,0,0,1-4.08,1.05,39,39,0,0,1-5.18.44Z" transform="translate(-53 -179.65)"/>
      <path class="cls-1" d="M342.31,216.71h32a28.12,28.12,0,0,1,11.18,2c.64.25,1.13.46,1.49.63.52.29,1.08.64,1.67,1a14.09,14.09,0,0,1,6,7.23,14.92,14.92,0,0,1,.95,5.31v.41a14.83,14.83,0,0,1-1.42,6.38q-.45.86-1.11,1.89a18,18,0,0,1-1.36,1.61,8.21,8.21,0,0,1-.75.79l-.32.32-.25.19-.48.38c-.38.27-.85.59-1.42.94l-.25.16-1.55.79-.66.32a27.15,27.15,0,0,1-2.59.91q3.92,4,5.37,5.88l1.92,2.18q1.8,2.09,3.45,3.88a4.26,4.26,0,0,1,.6.66H381.12a5.3,5.3,0,0,1-1.83-.25,2.74,2.74,0,0,1-.34-.19,2.84,2.84,0,0,1-.35-.22,7,7,0,0,1-1.49-1.48q-3-3.57-6.34-7.8l-1.11-1.42a2.39,2.39,0,0,0-.38.06l-11.78.06h-8v7.17a4.22,4.22,0,0,1-1.74,3.41,4,4,0,0,1-2.4.73h-7.23V221.13a4.65,4.65,0,0,1,.26-1.71,4.21,4.21,0,0,1,.44-.88,3.26,3.26,0,0,1,.53-.6A4.28,4.28,0,0,1,342.31,216.71Zm7.17,11.4v9.94h25.87a8.37,8.37,0,0,0,4.61-1,4.37,4.37,0,0,0,1.67-1.92,4.82,4.82,0,0,0,.44-2.09,4.62,4.62,0,0,0-2.11-3.85,5,5,0,0,0-.67-.38l-.19-.09a7.16,7.16,0,0,0-1.73-.51c-.26,0-.6,0-1.05-.06Z" transform="translate(-53 -179.65)"/>
      <path class="cls-1" d="M417.66,216.71H440.3A18.33,18.33,0,0,1,451,220.15a14.19,14.19,0,0,1,2,1.64l.41.35c1,1.18,1.78,2.08,2.24,2.71a18.81,18.81,0,0,1,3.32,10.8v6.1a18.88,18.88,0,0,1-4.52,12.41,16.76,16.76,0,0,1-2.33,2.21,17.17,17.17,0,0,1-3.26,2.18,18.41,18.41,0,0,1-8.65,2.15H417.73a18.7,18.7,0,0,1-11.25-3.76,30.26,30.26,0,0,1-2.4-2.18A15.08,15.08,0,0,1,402,252a18.33,18.33,0,0,1-3-10.16v-6.35a18.62,18.62,0,0,1,4.13-11.75c.4-.46,1.06-1.18,2-2.15a16.7,16.7,0,0,1,2.34-1.73A18.27,18.27,0,0,1,417.66,216.71Zm-7.29,19.1v5.75a7.05,7.05,0,0,0,1,3.88,5.33,5.33,0,0,0,1.13,1.62,7.39,7.39,0,0,0,5.44,2.27h22.13a7.2,7.2,0,0,0,6-3,7.93,7.93,0,0,0,1-1.74,8.32,8.32,0,0,0,.51-3.16v-5.36a8.2,8.2,0,0,0-.44-3.07,7.57,7.57,0,0,0-3.29-3.85,7.1,7.1,0,0,0-3.75-1H417.85a7.37,7.37,0,0,0-6.06,3.09,7.17,7.17,0,0,0-.92,1.68A7.49,7.49,0,0,0,410.37,235.81Z" transform="translate(-53 -179.65)"/>
    </g>
    <g>
      <path class="cls-2" d="M359,281.23a9.54,9.54,0,0,1,4,3.79,11.34,11.34,0,0,1,1.41,5.72,11.14,11.14,0,0,1-1.41,5.69,9.53,9.53,0,0,1-4,3.76,12.94,12.94,0,0,1-6,1.34h-7.56V279.89H353A12.94,12.94,0,0,1,359,281.23ZM358.06,296a7.09,7.09,0,0,0,1.86-5.24,7.24,7.24,0,0,0-1.86-5.28,7,7,0,0,0-5.27-1.91h-3.06v14.29h3.06A7.12,7.12,0,0,0,358.06,296Z" transform="translate(-53 -179.65)"/>
      <path class="cls-2" d="M395.84,294.24H383.29a4.28,4.28,0,0,0,1.3,2.92,4,4,0,0,0,2.82,1,3.54,3.54,0,0,0,3.44-2.08h4.68a7.73,7.73,0,0,1-2.85,4.08,8.34,8.34,0,0,1-5.17,1.6,9,9,0,0,1-4.45-1.1,7.75,7.75,0,0,1-3.07-3.12,9.57,9.57,0,0,1-1.1-4.65,9.8,9.8,0,0,1,1.08-4.68,7.69,7.69,0,0,1,3-3.1,9.13,9.13,0,0,1,4.5-1.08,9,9,0,0,1,4.38,1.05,7.53,7.53,0,0,1,3,3,9.1,9.1,0,0,1,1.07,4.45A9.36,9.36,0,0,1,395.84,294.24Zm-4.37-2.91a3.43,3.43,0,0,0-1.21-2.68,4.27,4.27,0,0,0-2.88-1,3.94,3.94,0,0,0-2.71,1,4.32,4.32,0,0,0-1.35,2.71Z" transform="translate(-53 -179.65)"/>
      <path class="cls-2" d="M418.68,297.53,423,284.36h4.62l-6.35,17.17H416l-6.32-17.17h4.65Z" transform="translate(-53 -179.65)"/>
      <path class="cls-2" d="M445.28,301.05a6.75,6.75,0,0,1-2.65-2.06,5.23,5.23,0,0,1-1.07-2.89h4.37a2.37,2.37,0,0,0,1,1.65,3.44,3.44,0,0,0,2.13.65,3.28,3.28,0,0,0,1.93-.5,1.49,1.49,0,0,0,.7-1.27,1.32,1.32,0,0,0-.85-1.25,15.81,15.81,0,0,0-2.71-.92,22.94,22.94,0,0,1-3.15-1,5.47,5.47,0,0,1-2.11-1.52,4.07,4.07,0,0,1-.88-2.76,4.43,4.43,0,0,1,.82-2.6,5.58,5.58,0,0,1,2.36-1.86,8.88,8.88,0,0,1,3.61-.68,7.36,7.36,0,0,1,4.89,1.53,5.68,5.68,0,0,1,2,4.14h-4.15a2.29,2.29,0,0,0-.86-1.63,3.86,3.86,0,0,0-3.84-.17,1.41,1.41,0,0,0-.64,1.21,1.42,1.42,0,0,0,.87,1.32,13.56,13.56,0,0,0,2.7.91,23.21,23.21,0,0,1,3.07,1,5.5,5.5,0,0,1,2.09,1.54,4.18,4.18,0,0,1,.91,2.74,4.56,4.56,0,0,1-.82,2.67,5.42,5.42,0,0,1-2.35,1.84,9.84,9.84,0,0,1-7.36-.09Z" transform="translate(-53 -179.65)"/>
    </g>
    <rect class="cls-2" x="164.92" y="110.74" width="118.48" height="2.02"/>
  </g>
</svg>
