<svg id="Layer_1" data-name="Layer 1" xmlns="http://www.w3.org/2000/svg" width="5.64in" height="2.12in" viewBox="0 0 405.97 152.72">
  <defs>
    <style>
      .cls-1 {
        fill: #fff;
      }
    </style>
  </defs>
  <g>
    <g>
      <path class="cls-1" d="M103,70.42a10.67,10.67,0,0,1-4.63,6.22A17.25,17.25,0,0,1,91.8,78.9a15.22,15.22,0,0,1-2.43.2c-3.69,0-7.27-1.36-11-4.14C65.31,65.1,52,55.13,39.12,45.49L28.18,37.35V137.74c0,8.67-5.81,15-13.79,15a17,17,0,0,1-7.5-1.84,12.73,12.73,0,0,1-5-4.23A11.55,11.55,0,0,1,0,140.09V12.78A12.15,12.15,0,0,1,4.29,3.43,14.65,14.65,0,0,1,13.85,0a16.78,16.78,0,0,1,8.64,2.44,72.83,72.83,0,0,1,6.94,4.89L31.6,9l24,18C69.21,37.24,83.28,47.8,97.13,58.18,100,60.35,104.82,63.92,103,70.42Z" transform="translate(0 -0.02)"/>
      <path class="cls-1" d="M138.7,150.61a18.06,18.06,0,0,1-7.86,1.93,15.62,15.62,0,0,1-9.26-3.1c-4.86-3.49-9.7-7.15-14.39-10.7-1.91-1.45-3.89-2.94-5.85-4.41L87.26,123.76C74.26,114,60.82,103.92,47.58,94,45.4,92.41,40.86,89,42,83c1.26-6.51,7.23-8.26,9.19-8.84a16.39,16.39,0,0,1,4.61-.69,17.59,17.59,0,0,1,10.77,4c13.84,10.4,27.94,20.94,41.57,31.14l8.83,6.6V14.76c0-4.66,1.19-8.27,3.53-10.74S126.4.23,130.89.23a15.26,15.26,0,0,1,1.64.06,13.49,13.49,0,0,1,9.24,3.83c2.24,2.3,3.33,5.49,3.33,9.41v36.9c0,28.53,0,58,.05,87.06C145.16,141.21,145.17,147.47,138.7,150.61Z" transform="translate(0 -0.02)"/>
    </g>
    <g>
      <path class="cls-1" d="M207.14,37.06a4.14,4.14,0,0,1,3.35,1.54,3.94,3.94,0,0,1,.85,1.77,4.35,4.35,0,0,1,.1,1.08v6.47h-40v6.35h28V63.8H171.49v6.72h40v6.35a4.09,4.09,0,0,1-1.08,2.72,4.2,4.2,0,0,1-.94.79,4.29,4.29,0,0,1-2.34.6H164a3.79,3.79,0,0,1-1.2-.26,4.25,4.25,0,0,1-2.4-2.14,4.61,4.61,0,0,1-.38-1.9V41.16a4.18,4.18,0,0,1,2.3-3.66,3.83,3.83,0,0,1,1-.35,2.82,2.82,0,0,1,.57-.09Z" transform="translate(0 -0.02)"/>
      <path class="cls-1" d="M234.59,81.05c-1.63-.07-2.82-.13-3.57-.19a21.47,21.47,0,0,1-3.57-.6,18.68,18.68,0,0,1-3.1-1,11,11,0,0,1-3-2q-3.89-3.48-3.89-12.23l.25-22.29A5.53,5.53,0,0,1,219,39a5.29,5.29,0,0,1,4.13-1.95h6.29V66.52a2.8,2.8,0,0,0,.25,1.1,2.76,2.76,0,0,0,2.59,1.74h29.24a2.79,2.79,0,0,0,2.18-1.1,2.9,2.9,0,0,0,.66-2.12v-29h6.32a4.83,4.83,0,0,1,2.08.47,5.25,5.25,0,0,1,2.85,2.84,6.89,6.89,0,0,1,.38,1.55q.27,20.72.28,23.34a22.84,22.84,0,0,1-1.36,8.27,11.32,11.32,0,0,1-1,2,11,11,0,0,1-2.59,2.65,14.73,14.73,0,0,1-2.65,1.36,20.55,20.55,0,0,1-4.08,1,39.06,39.06,0,0,1-5.18.44Z" transform="translate(0 -0.02)"/>
      <path class="cls-1" d="M289.31,37.06h32a28.14,28.14,0,0,1,11.18,2c.64.25,1.13.46,1.49.63.52.29,1.08.64,1.67,1a14,14,0,0,1,6,7.23,14.84,14.84,0,0,1,1,5.31v.41A14.79,14.79,0,0,1,341.18,60q-.45.85-1.11,1.89a19,19,0,0,1-1.36,1.61,8,8,0,0,1-.75.79l-.32.32-.25.19-.48.38c-.38.27-.85.59-1.42.94l-.25.16-1.55.79-.66.32a26.5,26.5,0,0,1-2.59.91q3.92,4,5.37,5.88l1.92,2.18c1.2,1.39,2.35,2.69,3.45,3.88a4.7,4.7,0,0,1,.6.66H328.12a5.4,5.4,0,0,1-1.83-.25l-.34-.19a2.56,2.56,0,0,1-.35-.22,7,7,0,0,1-1.49-1.48q-3-3.57-6.34-7.8l-1.11-1.42a2.32,2.32,0,0,0-.38.06l-11.78.06h-8v7.17a4.22,4.22,0,0,1-1.74,3.41,4,4,0,0,1-2.4.73h-7.23V41.48a4.74,4.74,0,0,1,.26-1.71,4.26,4.26,0,0,1,.44-.88,3.35,3.35,0,0,1,.53-.6A4.24,4.24,0,0,1,289.31,37.06Zm7.17,11.4V58.4h25.87a8.32,8.32,0,0,0,4.61-1,4.38,4.38,0,0,0,1.67-1.92,4.84,4.84,0,0,0,.44-2.09A4.62,4.62,0,0,0,327,49.54a5.51,5.51,0,0,0-.67-.38l-.19-.09a7.33,7.33,0,0,0-1.73-.51,7.38,7.38,0,0,1-1.05-.06Z" transform="translate(0 -0.02)"/>
      <path class="cls-1" d="M364.66,37.06H387.3A18.34,18.34,0,0,1,398,40.5a13.63,13.63,0,0,1,2,1.64l.41.35c1,1.18,1.78,2.08,2.24,2.71A18.74,18.74,0,0,1,406,56v6.1a18.87,18.87,0,0,1-4.52,12.41,16.25,16.25,0,0,1-2.33,2.21,17,17,0,0,1-3.26,2.18,18.47,18.47,0,0,1-8.65,2.15H364.73a18.7,18.7,0,0,1-11.25-3.76,29.12,29.12,0,0,1-2.4-2.18A15.13,15.13,0,0,1,349,72.35a18.33,18.33,0,0,1-3-10.16V55.84a18.68,18.68,0,0,1,4.13-11.75c.4-.46,1.06-1.18,2-2.15a17.24,17.24,0,0,1,2.34-1.73A18.26,18.26,0,0,1,364.66,37.06Zm-7.29,19.1v5.75a7.06,7.06,0,0,0,1,3.88,5.25,5.25,0,0,0,1.13,1.62,7.39,7.39,0,0,0,5.44,2.27h22.13a7.19,7.19,0,0,0,6-3,7.93,7.93,0,0,0,1-1.74,8.29,8.29,0,0,0,.51-3.16V56.42a8.23,8.23,0,0,0-.44-3.07,7.56,7.56,0,0,0-3.29-3.85,7.06,7.06,0,0,0-3.75-1H364.85a7.37,7.37,0,0,0-6.06,3.09,7.23,7.23,0,0,0-.92,1.68,7.31,7.31,0,0,0-.5,2.89Z" transform="translate(0 -0.02)"/>
    </g>
    <g>
      <path class="cls-1" d="M306,101.58a9.5,9.5,0,0,1,4,3.79,11.31,11.31,0,0,1,1.41,5.72,11.1,11.1,0,0,1-1.41,5.69,9.54,9.54,0,0,1-4,3.76,13,13,0,0,1-6,1.34h-7.56V100.24H300A13,13,0,0,1,306,101.58Zm-.94,14.77a7.07,7.07,0,0,0,1.86-5.24,7.26,7.26,0,0,0-1.86-5.28,7,7,0,0,0-5.27-1.91h-3.06v14.29h3.06A7.14,7.14,0,0,0,305.06,116.35Z" transform="translate(0 -0.02)"/>
      <path class="cls-1" d="M342.84,114.59H330.29a4.31,4.31,0,0,0,1.3,2.92,4,4,0,0,0,2.82,1,3.53,3.53,0,0,0,3.44-2.08h4.68a7.72,7.72,0,0,1-2.85,4.08,8.35,8.35,0,0,1-5.17,1.6,9.09,9.09,0,0,1-4.45-1.1,7.75,7.75,0,0,1-3.07-3.12,9.63,9.63,0,0,1-1.1-4.65,9.87,9.87,0,0,1,1.08-4.68,7.65,7.65,0,0,1,3-3.1,9.15,9.15,0,0,1,4.5-1.08,8.91,8.91,0,0,1,4.38,1.05,7.47,7.47,0,0,1,3,3,9.09,9.09,0,0,1,1.07,4.45A8.91,8.91,0,0,1,342.84,114.59Zm-4.37-2.91a3.42,3.42,0,0,0-1.21-2.68,4.26,4.26,0,0,0-2.88-1,4,4,0,0,0-2.71,1,4.33,4.33,0,0,0-1.35,2.71Z" transform="translate(0 -0.02)"/>
      <path class="cls-1" d="M365.68,117.88,370,104.71h4.62l-6.35,17.17H363l-6.32-17.17h4.65Z" transform="translate(0 -0.02)"/>
      <path class="cls-1" d="M392.28,121.4a6.76,6.76,0,0,1-2.65-2.06,5.22,5.22,0,0,1-1.07-2.89h4.37a2.35,2.35,0,0,0,1,1.65,3.4,3.4,0,0,0,2.13.65,3.29,3.29,0,0,0,1.93-.5,1.48,1.48,0,0,0,.7-1.27,1.32,1.32,0,0,0-.85-1.25,15.18,15.18,0,0,0-2.71-.92,23.06,23.06,0,0,1-3.15-1,5.42,5.42,0,0,1-2.11-1.52,4,4,0,0,1-.88-2.76,4.41,4.41,0,0,1,.82-2.6,5.59,5.59,0,0,1,2.36-1.86,8.75,8.75,0,0,1,3.61-.68,7.36,7.36,0,0,1,4.89,1.53,5.68,5.68,0,0,1,2,4.14h-4.15a2.32,2.32,0,0,0-.86-1.63,3.85,3.85,0,0,0-3.84-.17,1.41,1.41,0,0,0-.64,1.21,1.42,1.42,0,0,0,.87,1.32,13.62,13.62,0,0,0,2.7.91,23.41,23.41,0,0,1,3.07,1,5.5,5.5,0,0,1,2.09,1.54,4.2,4.2,0,0,1,.91,2.74,4.55,4.55,0,0,1-.82,2.67,5.44,5.44,0,0,1-2.35,1.84,9.86,9.86,0,0,1-7.36-.09Z" transform="translate(0 -0.02)"/>
    </g>
    <rect class="cls-1" x="164.92" y="110.72" width="118.48" height="2.02"/>
  </g>
</svg>
